<svg width="1184" height="349" viewBox="0 0 1184 349" fill="none" xmlns="http://www.w3.org/2000/svg">
<path d="M150.72 216.072H113.024V305.352C113.024 313.288 113.024 315.768 118.48 319.24L173.536 348.008V349H0.431641V348.008L38.6236 321.224C43.5836 317.752 44.0796 316.264 44.0796 310.312V38.9995C44.0796 33.0475 43.5836 31.5595 38.6236 28.0875L0.431641 1.30351V0.311523H160.144C229.088 0.311523 287.12 29.0795 287.12 105.96C287.12 178.872 228.096 216.072 150.72 216.072ZM113.024 19.6555V206.648H141.792C180.976 206.648 213.712 176.888 213.712 106.952C213.712 41.4795 184.944 9.73552 144.272 9.73552H122.448C115.008 9.73552 113.024 11.7195 113.024 19.6555Z" fill="#202020"/>
<path d="M557.695 349H299.775V348.008L337.967 321.224C342.927 317.752 343.423 316.264 343.423 310.312V38.9995C343.423 33.0475 342.927 31.5595 337.967 28.0875L299.775 1.30351V0.311523H456.511V1.30351L418.319 28.0875C412.863 32.0555 412.367 33.0475 412.367 38.9995V329.16C412.367 338.088 413.855 339.576 420.303 339.576H484.287C493.711 339.576 497.183 338.584 500.159 333.128L556.703 229.96H557.695V349Z" fill="#202020"/>
<path d="M857.965 301.88C860.941 310.312 863.917 315.768 868.877 321.72L889.709 348.008V349H755.789V348.008L785.549 318.248C789.021 314.776 789.517 311.8 787.533 305.352L761.741 226.984H648.157L629.309 284.024C626.829 290.968 627.821 292.952 633.277 298.904L678.413 348.008V349H564.333V348.008L607.485 300.888C615.421 291.96 616.909 289.976 619.885 281.544L696.269 50.9035C699.741 40.9835 698.749 39.4955 692.797 33.0475L664.525 1.30351V0.311523H759.261L857.965 301.88ZM705.693 54.3755L651.133 217.56H758.765L705.693 54.3755Z" fill="#202020"/>
<path d="M1049.96 211.112V308.824C1049.96 315.272 1050.45 316.264 1055.91 319.736L1097.08 348.008V349H933.892V348.008L975.556 319.736C980.516 316.264 981.012 315.272 981.012 308.824V218.056C981.012 211.608 980.516 209.128 977.54 204.168L892.724 46.9355C888.26 38.5035 884.292 34.0395 879.332 28.5835L854.036 1.30351V0.311523H999.86V1.30351L969.108 30.5675C965.14 34.5355 964.644 36.0235 967.124 40.9835L1045 188.792L1109.97 61.8155C1113.44 54.8715 1112.45 52.8875 1108.48 48.4235L1065.83 1.30351V0.311523H1183.88V1.30351L1134.28 47.4315C1126.34 54.3755 1123.86 57.3515 1118.9 66.2795L1053.92 192.76C1050.45 199.208 1049.96 202.184 1049.96 211.112Z" fill="#202020"/>
</svg>
